<svg xmlns="http://www.w3.org/2000/svg" width="3918.17" height="2507.04" viewBox="0 0 3918.17 2507.04"><g id="Layer_2" data-name="Layer 2"><g id="Слой_1" data-name="Слой 1"><g id="TOWER"><polygon points="1196.05 2098.56 1059.77 2098.56 1039.45 470.72 1175.73 470.72 1196.05 2098.56" fill="#fff" stroke="#59221d" stroke-miterlimit="10" stroke-width="5"/><polygon points="1175.73 470.72 1175.73 515.73 1039.45 484.49 1039.45 470.72 1175.73 470.72" fill="#59221d"/><path d="M1441.83,210.9l-35.25,88.71-32.47,81.76-24.69,62.16a43.12,43.12,0,0,1-40.06,27.19H899.27a43.11,43.11,0,0,1-40.06-27.19l-24.69-62.16L802,299.61,766.8,210.9Z" fill="#fff" stroke="#59221d" stroke-miterlimit="10" stroke-width="5"/><line x1="701.98" y1="210.89" x2="1497.71" y2="210.89" fill="none" stroke="#59221d" stroke-linecap="round" stroke-miterlimit="10" stroke-width="5"/><polygon points="766.8 210.89 1441.83 210.89 1104.32 140.62 766.8 210.89" fill="none" stroke="#59221d" stroke-linecap="round" stroke-miterlimit="10" stroke-width="5"/><line x1="1104.32" y1="140.62" x2="1104.32" y2="2.5" fill="none" stroke="#59221d" stroke-linecap="round" stroke-miterlimit="10" stroke-width="5"/><polygon points="1175.73 542.1 1175.73 576.12 1039.45 548.29 1039.45 542.1 1175.73 542.1" fill="#59221d"/><rect x="972.82" y="516.8" width="270.22" height="25.54" fill="#fff" stroke="#59221d" stroke-miterlimit="10" stroke-width="5"/><polygon points="1399.08 311.81 1366.6 393.57 855.16 393.57 822.69 311.81 1399.08 311.81" fill="#bddce8"/><polygon points="1406.58 299.61 1374.11 381.37 834.52 381.37 802.04 299.61 1406.58 299.61" fill="none" stroke="#59221d" stroke-linecap="round" stroke-miterlimit="10" stroke-width="5"/><line x1="904.26" y1="381.37" x2="871.79" y2="299.61" fill="none" stroke="#59221d" stroke-linecap="round" stroke-miterlimit="10" stroke-width="5"/><line x1="974.01" y1="381.37" x2="941.53" y2="299.61" fill="none" stroke="#59221d" stroke-linecap="round" stroke-miterlimit="10" stroke-width="5"/><line x1="1043.75" y1="381.37" x2="1011.28" y2="299.61" fill="none" stroke="#59221d" stroke-linecap="round" stroke-miterlimit="10" stroke-width="5"/><line x1="1302.14" y1="381.37" x2="1334.62" y2="299.61" fill="none" stroke="#59221d" stroke-linecap="round" stroke-miterlimit="10" stroke-width="5"/><line x1="1232.4" y1="381.37" x2="1264.87" y2="299.61" fill="none" stroke="#59221d" stroke-linecap="round" stroke-miterlimit="10" stroke-width="5"/><line x1="1162.65" y1="381.37" x2="1195.13" y2="299.61" fill="none" stroke="#59221d" stroke-linecap="round" stroke-miterlimit="10" stroke-width="5"/><line x1="1104.32" y1="381.37" x2="1104.32" y2="299.61" fill="none" stroke="#59221d" stroke-linecap="round" stroke-miterlimit="10" stroke-width="5"/></g><g id="AIRPORT"><path d="M3772.65,1496.6H1616.26c146.09-400.86,573.58-691.07,1078.2-691.07S3626.57,1095.74,3772.65,1496.6Z" fill="none" stroke="#59221d" stroke-linecap="round" stroke-miterlimit="10" stroke-width="5"/><path d="M3707,1499.55H1712c124.91-342.76,566-600.47,997.51-600.47S3582.07,1156.79,3707,1499.55Z" fill="#bddce8"/><path d="M3722.43,1496.6H1666.48c128.72-353.23,583.32-618.82,1028-618.82S3593.71,1143.37,3722.43,1496.6Z" fill="none" stroke="#59221d" stroke-linecap="round" stroke-miterlimit="10" stroke-width="5"/><line x1="2824.65" y1="776.27" x2="2824.65" y2="810.46" fill="none" stroke="#59221d" stroke-linecap="round" stroke-miterlimit="10" stroke-width="5"/><line x1="2563.03" y1="810.46" x2="2563.03" y2="776.27" fill="none" stroke="#59221d" stroke-linecap="round" stroke-miterlimit="10" stroke-width="5"/><rect x="2537" y="737.57" width="331.03" height="46.11" fill="#fed4c7"/><rect x="2528.94" y="729.5" width="331.03" height="46.11" fill="none" stroke="#59221d" stroke-linecap="round" stroke-miterlimit="10" stroke-width="5"/><line x1="2709.48" y1="895.14" x2="2709.48" y2="1491.17" fill="none" stroke="#fff" stroke-linecap="round" stroke-miterlimit="10" stroke-width="6"/><line x1="2890.08" y1="908.55" x2="2890.08" y2="1491.17" fill="none" stroke="#fff" stroke-linecap="round" stroke-miterlimit="10" stroke-width="6"/><line x1="3070.69" y1="950.32" x2="3070.69" y2="1491.17" fill="none" stroke="#fff" stroke-linecap="round" stroke-miterlimit="10" stroke-width="6"/><line x1="3251.3" y1="1024.54" x2="3251.3" y2="1491.17" fill="none" stroke="#fff" stroke-linecap="round" stroke-miterlimit="10" stroke-width="6"/><line x1="3470.85" y1="1165.09" x2="3470.85" y2="1491.17" fill="none" stroke="#fff" stroke-linecap="round" stroke-miterlimit="10" stroke-width="6"/><line x1="2528.92" y1="910.02" x2="2528.92" y2="1490.63" fill="none" stroke="#fff" stroke-linecap="round" stroke-miterlimit="10" stroke-width="6"/><line x1="2348.31" y1="951.8" x2="2348.31" y2="1490.63" fill="none" stroke="#fff" stroke-linecap="round" stroke-miterlimit="10" stroke-width="6"/><line x1="2167.71" y1="1026.02" x2="2167.71" y2="1490.63" fill="none" stroke="#fff" stroke-linecap="round" stroke-miterlimit="10" stroke-width="6"/><line x1="1987.1" y1="1137.06" x2="1987.1" y2="1490.63" fill="none" stroke="#fff" stroke-linecap="round" stroke-miterlimit="10" stroke-width="6"/></g><g id="SPOTLIGHT"><circle cx="3212.8" cy="380.94" r="22.49" fill="#fed4c7"/><circle cx="3322.89" cy="380.94" r="22.49" fill="#fed4c7"/><circle cx="3432.98" cy="380.94" r="22.49" fill="#fed4c7"/><circle cx="3543.07" cy="380.94" r="22.49" fill="#fed4c7"/><line x1="3158.19" y1="346.03" x2="3581.58" y2="346.03" fill="none" stroke="#59221d" stroke-linecap="round" stroke-miterlimit="10" stroke-width="5"/><line x1="3158.19" y1="414.52" x2="3581.58" y2="414.52" fill="none" stroke="#59221d" stroke-linecap="round" stroke-miterlimit="10" stroke-width="5"/><line x1="3369.89" y1="530.96" x2="3369.89" y2="1496.71" fill="none" stroke="#59221d" stroke-linecap="round" stroke-miterlimit="10" stroke-width="5"/><polyline points="3488.03 414.69 3369.89 530.96 3251.74 414.69" fill="none" stroke="#59221d" stroke-linecap="round" stroke-miterlimit="10" stroke-width="5"/><circle cx="3202.48" cy="380" r="22.49" fill="none" stroke="#59221d" stroke-linecap="round" stroke-miterlimit="10" stroke-width="5"/><circle cx="3312.57" cy="380" r="22.49" fill="none" stroke="#59221d" stroke-linecap="round" stroke-miterlimit="10" stroke-width="5"/><circle cx="3422.66" cy="380" r="22.49" fill="none" stroke="#59221d" stroke-linecap="round" stroke-miterlimit="10" stroke-width="5"/><circle cx="3532.75" cy="380" r="22.49" fill="none" stroke="#59221d" stroke-linecap="round" stroke-miterlimit="10" stroke-width="5"/></g><g id="PLANE"><path d="M1840.68,535.11a37.82,37.82,0,0,0-24.77,9.24l-14,12.12-186.16-15.63a2.84,2.84,0,0,1-1.87-.92,2.79,2.79,0,0,1-.76-1.94,2.86,2.86,0,0,1,2.87-2.87Z" fill="#fff" stroke="#59221d" stroke-miterlimit="10" stroke-width="5"/><path d="M2153.79,575.59,2209.15,502h-6.46a14.24,14.24,0,0,0-7.9,2.39l-29.59,19.73a65.06,65.06,0,0,1-36.15,11H1840.68a37.87,37.87,0,0,0-24.77,9.23l-14,12.14c-13.66,11.82-5.3,34.26,12.77,34.26h308.76A38,38,0,0,0,2153.79,575.59Z" fill="#fff" stroke="#59221d" stroke-miterlimit="10" stroke-width="5"/><path d="M2002,552.93a71.89,71.89,0,0,0-47.39-17.82h378.3a3.31,3.31,0,0,1,3.31,3.31h0a3.29,3.29,0,0,1-3,3.29L2019.4,568.19Z" fill="#fff" stroke="#59221d" stroke-miterlimit="10" stroke-width="5"/><path d="M1737.23,562.06c0,12.79-8.63,19.21-22.4,19.21-6,0-10.84-1.29-14.45-3.6a9.82,9.82,0,0,0,4.54,1.14c6.91,0,12.51-7.51,12.51-16.76s-5.6-16.75-12.51-16.75a9.7,9.7,0,0,0-4.54,1.14v-.06c3.59-2.28,8.41-3.56,14.45-3.56C1729.09,542.82,1737.23,549.9,1737.23,562.06Z" fill="#fff" stroke="#59221d" stroke-miterlimit="10" stroke-width="5"/><ellipse cx="1704.92" cy="562.05" rx="12.51" ry="16.75" fill="#fff" stroke="#59221d" stroke-miterlimit="10" stroke-width="5"/><path d="M2048.08,562.06c0,12.79-8.65,19.21-22.42,19.21-6,0-10.83-1.29-14.44-3.6a9.82,9.82,0,0,0,4.53,1.14c6.92,0,12.52-7.51,12.52-16.76s-5.6-16.75-12.52-16.75a9.69,9.69,0,0,0-4.53,1.14v-.06c3.59-2.28,8.41-3.56,14.44-3.56C2039.93,542.82,2048.08,549.9,2048.08,562.06Z" fill="#fff" stroke="#59221d" stroke-miterlimit="10" stroke-width="5"/><ellipse cx="2015.76" cy="562.05" rx="12.51" ry="16.75" fill="#fff" stroke="#59221d" stroke-miterlimit="10" stroke-width="5"/><path d="M1846.83,555.09h-43.48l11-9.3h27.44a5.37,5.37,0,0,1,5.07,3.58l1.33,3.73A1.49,1.49,0,0,1,1846.83,555.09Z" fill="#59221d"/><rect x="1882.44" y="545.79" width="6.04" height="9.29" rx="3" fill="#59221d"/><rect x="1899.33" y="545.79" width="6.04" height="9.29" rx="3" fill="#59221d"/><rect x="1916.22" y="545.79" width="6.04" height="9.29" rx="3" fill="#59221d"/><rect x="1933.11" y="545.79" width="6.04" height="9.29" rx="3" fill="#59221d"/><rect x="1950" y="545.79" width="6.04" height="9.29" rx="3" fill="#59221d"/><rect x="1966.89" y="545.79" width="6.04" height="9.29" rx="3" fill="#59221d"/></g><g id="BUSH"><path d="M3755.51,1370.7a48.64,48.64,0,0,1,45.59,32" fill="none" stroke="#59221d" stroke-linecap="round" stroke-miterlimit="10" stroke-width="5"/><path d="M3915.67,1499.77v-2.47c-16.52-43.33-61-74.36-113.17-74.36a127.51,127.51,0,0,0-45.91,8.46c-6.27,2.42-13.05-2-13-8.31v-.15a104.47,104.47,0,0,0-7.54-39c-17-42.47-61-72.72-112.55-72.72s-95.52,30.25-112.53,72.72c-.39,1-.77,1.94-1.13,2.93-1.45-1-2.93-2-4.42-2.93a127.7,127.7,0,0,0-134.49,0c-31.89,20.1-52.84,54.08-52.84,92.62v.16c0,5.26-6.59,8.21-10.93,4.84-24-18.6-56.13-30-91.47-30-45.79,0-86.22,19.09-110.44,48.23Z" fill="#fff" stroke="#59221d" stroke-linecap="round" stroke-miterlimit="10" stroke-width="5"/><path d="M3690.45,1475.08c-22-14.45-49.27-13.85-68.44-.48-.43.3-.87.61-1.3.93-.33-.83-.69-1.66-1.07-2.49a65.18,65.18,0,0,0-57.42-37.68c-19.25-.35-37.72,8.28-48.52,24.74l0,.07" fill="none" stroke="#59221d" stroke-linecap="round" stroke-miterlimit="10" stroke-width="5"/></g><g id="TAXI_DRIVER" data-name="TAXI DRIVER"><line id="GROUND" x1="1441.83" y1="2256.52" x2="3464.75" y2="2256.52" fill="none" stroke="#59221d" stroke-linecap="round" stroke-miterlimit="10" stroke-width="5"/><g id="BACK_WHEEL" data-name="BACK WHEEL"><path d="M1022.3,2098.37c0,87.34,64.6,158.15,144.28,158.15h-38.17c-82.6,0-143.26-70.81-143.26-158.15s60.66-158.14,143.26-158.14h38.17C1086.9,1940.23,1022.3,2011,1022.3,2098.37Z" fill="#fff" stroke="#59221d" stroke-miterlimit="10" stroke-width="5"/><path d="M1168.72,1940.25l-2.14,0h2.14Z" fill="#fff" stroke="#59221d" stroke-miterlimit="10" stroke-width="5"/><path d="M1168.72,2256.52h-2.14l2.14,0Z" fill="#fff" stroke="#59221d" stroke-miterlimit="10" stroke-width="5"/><path d="M1310.87,2098.37c0,86.56-63.45,156.88-142.15,158.13l-2.14,0c-79.68,0-144.28-70.81-144.28-158.15s64.6-158.14,144.28-158.14l2.14,0C1247.42,1941.5,1310.87,2011.81,1310.87,2098.37Z" fill="#a74602" stroke="#59221d" stroke-miterlimit="10" stroke-width="5"/><ellipse cx="1166.58" cy="2099.61" rx="102.72" ry="112.59" fill="none" stroke="#59221d" stroke-miterlimit="10" stroke-width="5"/></g><g id="CAR"><path d="M3707.06,1729.09v368.53H882.87v-314.7a110,110,0,0,1,64.33-100.06l406.6-158.94L1611.24,1120a123.16,123.16,0,0,1,103.88-57h947.76c219.34,0,307.84,68.32,411.44,187.33l78.7,90.4a876,876,0,0,0,182.87,159h244.92a125.69,125.69,0,0,1,125.69,125.68v93.68A88.47,88.47,0,0,1,3707.06,1729.09Z" fill="#fff" stroke="#59221d" stroke-linecap="round" stroke-miterlimit="10" stroke-width="5"/><path d="M3704.26,1675.9v402.75H895.06V1786.3c0-40.49,41.48-77.24,79.79-94l398.92-149.37H3571.25A133,133,0,0,1,3704.26,1675.9Z" fill="#ffc200"/><rect x="806.61" y="2027.39" width="3004.24" height="71.91" rx="35.67" fill="#fff" stroke="#59221d" stroke-miterlimit="10" stroke-width="5"/><path d="M2350,1064.93H1873.27l45.94-69.54a60.23,60.23,0,0,1,50.21-27.24h284.43l1.57,0a60.28,60.28,0,0,1,48.64,27.22Z" fill="#fff"/><path d="M2350,1064.93H1898l43.56-62a58.09,58.09,0,0,1,47.59-24.28h269.68l1.49,0a58.08,58.08,0,0,1,46.11,24.26Z" fill="#ffc200"/><path d="M2352.82,1063.06H1873.27l47.2-70A62.15,62.15,0,0,1,1972,965.58h282l1.61,0a62.2,62.2,0,0,1,50,27.42Z" fill="none" stroke="#59221d" stroke-linecap="round" stroke-miterlimit="10" stroke-width="5"/><path d="M2352.82,1063.06H2158.51l47.19-70a59.23,59.23,0,0,1,99.93,0Z" fill="none" stroke="#59221d" stroke-linecap="round" stroke-miterlimit="10" stroke-width="5"/></g><g id="PATTERN"><rect x="2609.63" y="1645.53" width="36.43" height="36.43" fill="#59221d"/><rect x="2682.5" y="1645.53" width="36.43" height="36.43" fill="#59221d"/><rect x="2755.37" y="1645.53" width="36.43" height="36.43" fill="#59221d"/><rect x="2828.24" y="1645.53" width="36.43" height="36.43" fill="#59221d"/><rect x="2646.06" y="1681.97" width="36.43" height="36.43" fill="#59221d"/><rect x="2718.93" y="1681.97" width="36.43" height="36.43" fill="#59221d"/><rect x="2791.8" y="1681.97" width="36.43" height="36.43" fill="#59221d"/><rect x="1884.56" y="1645.53" width="36.43" height="36.43" fill="#59221d"/><rect x="1957.43" y="1645.53" width="36.43" height="36.43" fill="#59221d"/><rect x="2030.3" y="1645.53" width="36.43" height="36.43" fill="#59221d"/><rect x="2103.17" y="1645.53" width="36.43" height="36.43" fill="#59221d"/><rect x="1921" y="1681.97" width="36.43" height="36.43" fill="#59221d"/><rect x="1993.87" y="1681.97" width="36.43" height="36.43" fill="#59221d"/><rect x="2066.74" y="1681.97" width="36.43" height="36.43" fill="#59221d"/></g><g id="BACK_WINDOWS" data-name="BACK WINDOWS"><path d="M3055.7,1320.71v204.35H2420.3V1136.21a45,45,0,0,1,45-45h179.75c183.19,0,276.12,54.68,377.18,151.41A108.14,108.14,0,0,1,3055.7,1320.71Z" fill="none" stroke="#59221d" stroke-linecap="round" stroke-miterlimit="10" stroke-width="5"/><path d="M3218.34,1525.06h-132V1331.87a7.15,7.15,0,0,1,12.54-4.7l36.36,41.77a876.69,876.69,0,0,0,103.11,100.42C3261.06,1488.13,3247.83,1525.06,3218.34,1525.06Z" fill="none" stroke="#59221d" stroke-linecap="round" stroke-miterlimit="10" stroke-width="5"/></g><g id="SITTING"><path d="M3055.69,1474v50.91h-57.22V1474a102.53,102.53,0,0,0-102.54-102.53h57.24A102.52,102.52,0,0,1,3055.69,1474Z" fill="#a74602" stroke="#59221d" stroke-miterlimit="10" stroke-width="5"/><path d="M2998.47,1474v50.91h-578V1371.48h475.46A102.53,102.53,0,0,1,2998.47,1474Z" fill="#fff" stroke="#59221d" stroke-miterlimit="10" stroke-width="5"/></g><g id="DRIVER"><path id="SHADOW" d="M2295.05,1763.16v.45a181.31,181.31,0,0,1-132.86-57.94l-170.28-183.43h63.61l93.59,151.35a190.38,190.38,0,0,0,145.94,89.57Z" fill="#59221d"/><g id="SHIRT"><path d="M1849.81,1303.7h311.46a139.41,139.41,0,0,1,126.05,79.87l40.78,86.37,81.19-98.78a61.5,61.5,0,0,1,74.56-16.19l77.77,38.09a61.5,61.5,0,0,1,25.91,86.52l-112.65,190.71A190.37,190.37,0,0,1,2311,1763.82h0a190.32,190.32,0,0,1-161.88-90.23l-93.6-151.35h-426l104.27-156.45A139.39,139.39,0,0,1,1849.81,1303.7Z" fill="#98c8db"/><g opacity="0.5"><path d="M2206.41,1311.21v421.3q-2.37-1.54-4.69-3.19V1309.69C2203.29,1310.17,2204.86,1310.68,2206.41,1311.21Z" fill="#fff"/><path d="M2235.49,1325.11v423.1c-1.57-.68-3.14-1.38-4.69-2.11V1322.28C2232.39,1323.19,2234,1324.14,2235.49,1325.11Z" fill="#fff"/><path d="M2264.58,1349.5v408.57c-1.57-.39-3.13-.8-4.69-1.23V1344.58C2261.49,1346.18,2263.06,1347.82,2264.58,1349.5Z" fill="#fff"/><path d="M2293.67,1397v366c-1.57-.13-3.14-.29-4.69-.48V1387.09l1.89,4Z" fill="#fff"/><path d="M2322.75,1458.62v304.83c-1.55.11-3.12.18-4.69.24v-315l.28.6Z" fill="#fff"/><path d="M2351.84,1441.06v318.32c-1.56.35-3.12.68-4.69,1V1446.77l1.79-2.18Z" fill="#fff"/><path d="M2380.93,1405.67V1750.5c-1.55.61-3.12,1.21-4.69,1.78V1411.37Z" fill="#fff"/><path d="M2410,1370.31V1736c-1.54,1-3.11,1.87-4.69,2.77V1376l4-4.83Z" fill="#fff"/><path d="M2439.1,1351.31v362.94c-1.54,1.41-3.1,2.78-4.69,4.13V1352.94C2436,1352.33,2437.52,1351.79,2439.1,1351.31Z" fill="#fff"/><path d="M2468.19,1349.77V1681H2468q-2.22,3.23-4.53,6.34v-338.3C2465.06,1349.24,2466.63,1349.47,2468.19,1349.77Z" fill="#fff"/><polygon points="2497.27 1361.54 2497.27 1632.37 2492.58 1640.3 2492.58 1359.24 2497.27 1361.54" fill="#fff"/><polygon points="2526.36 1375.79 2526.36 1583.13 2522.84 1589.08 2521.67 1591.06 2521.67 1373.5 2526.36 1375.79" fill="#fff"/><polygon points="2555.45 1390.04 2555.45 1533.88 2553.88 1536.54 2550.76 1541.82 2550.76 1387.74 2555.45 1390.04" fill="#fff"/><path d="M2584.53,1412.41v72.23l-4.69,7.94v-85.94A55.77,55.77,0,0,1,2584.53,1412.41Z" fill="#fff"/><path d="M1800.13,1312.85v209.39h-4.69v-207.5C1797,1314.08,1798.56,1313.46,1800.13,1312.85Z" fill="#fff"/><path d="M1829.22,1305.23v217h-4.69V1306C1826.09,1305.72,1827.65,1305.46,1829.22,1305.23Z" fill="#fff"/><rect x="1853.62" y="1303.7" width="4.69" height="218.54" fill="#fff"/><rect x="1882.7" y="1303.7" width="4.69" height="218.54" fill="#fff"/><rect x="1911.79" y="1303.7" width="4.69" height="218.54" fill="#fff"/><rect x="1940.88" y="1303.7" width="4.69" height="218.54" fill="#fff"/><rect x="1969.96" y="1303.7" width="4.69" height="218.54" fill="#fff"/><rect x="1999.05" y="1303.7" width="4.69" height="218.54" fill="#fff"/><rect x="2028.14" y="1303.7" width="4.69" height="218.54" fill="#fff"/><polygon points="2061.91 1303.7 2061.91 1532.59 2061.45 1531.85 2057.22 1525 2057.22 1303.7 2061.91 1303.7" fill="#fff"/><polygon points="2091 1303.7 2091 1579.63 2086.31 1572.04 2086.31 1303.7 2091 1303.7" fill="#fff"/><polygon points="2120.09 1303.7 2120.09 1626.65 2115.4 1619.07 2115.4 1303.7 2120.09 1303.7" fill="#fff"/><path d="M2149.17,1303.7v370l-.06-.11-4.63-7.47V1303.7Z" fill="#fff"/><path d="M2178.26,1304.74v405.17q-2.27-2.21-4.45-4.48l-.24-.25V1304.24C2175.14,1304.38,2176.7,1304.54,2178.26,1304.74Z" fill="#fff"/><polygon points="1654.7 1484.49 1654.7 1522.24 1650.01 1522.24 1650.01 1491.53 1654.7 1484.49" fill="#fff"/><polygon points="1683.79 1440.86 1683.79 1522.24 1679.1 1522.24 1679.1 1447.89 1681.3 1444.59 1683.79 1440.86" fill="#fff"/><polygon points="1712.88 1397.21 1712.88 1522.24 1708.18 1522.24 1708.18 1404.24 1712.88 1397.21" fill="#fff"/><path d="M1742,1354.78v167.46h-4.69V1360.85c.86-1.19,1.75-2.37,2.65-3.52Q1740.92,1356,1742,1354.78Z" fill="#fff"/><path d="M1771.05,1328.08v194.16h-4.69v-190.8q2.19-1.65,4.46-3.2Z" fill="#fff"/><path d="M2412.44,1734.52q-1.2.76-2.43,1.5c-1.54,1-3.11,1.87-4.69,2.77-.24.15-.48.29-.73.42h-187.2q-4-2.24-7.86-4.69Z" fill="#fff"/><path d="M2448.16,1705.43c-1.52,1.59-3.08,3.16-4.67,4.69h-265c-.08-.06-.15-.14-.23-.21q-2.27-2.21-4.45-4.48Z" fill="#fff"/><path d="M2471.13,1676.34c-1,1.5-1.94,3-2.94,4.46v.23H2154q-1.59-2.31-3.12-4.69Z" fill="#fff"/><polygon points="2488.48 1647.26 2485.7 1651.95 2135.73 1651.95 2132.83 1647.26 2488.48 1647.26" fill="#fff"/><polygon points="2505.66 1618.17 2502.89 1622.86 2117.74 1622.86 2115.4 1619.07 2114.84 1618.17 2505.66 1618.17" fill="#fff"/><polygon points="2522.84 1589.08 2521.67 1591.06 2520.07 1593.78 2099.76 1593.78 2096.86 1589.08 2522.84 1589.08" fill="#fff"/><polygon points="2539.47 1560.93 2536.7 1565.63 2082.35 1565.63 2079.44 1560.93 2539.47 1560.93" fill="#fff"/><polygon points="2556.65 1531.85 2555.45 1533.88 2553.88 1536.54 2064.35 1536.54 2061.91 1532.59 2061.45 1531.85 2556.65 1531.85" fill="#fff"/><polygon points="2573.83 1502.76 2571.06 1507.45 1639.4 1507.45 1642.53 1502.76 2573.83 1502.76" fill="#fff"/><path d="M2590.6,1473.68c-.72,1.58-1.52,3.15-2.39,4.69H1658.78l3.14-4.69Z" fill="#fff"/><polygon points="2318.34 1449.28 1678.17 1449.28 1679.1 1447.89 1681.3 1444.59 2316.13 1444.59 2318.06 1448.68 2318.34 1449.28" fill="#fff"/><polygon points="2596.4 1444.59 2596.4 1449.28 2345.09 1449.28 2347.15 1446.77 2348.94 1444.59 2596.4 1444.59" fill="#fff"/><polygon points="2304.61 1420.19 1697.55 1420.19 1700.68 1415.5 2302.39 1415.5 2304.61 1420.19" fill="#fff"/><polygon points="2580.59 1415.5 2580.59 1420.19 2368.99 1420.19 2372.85 1415.5 2580.59 1415.5" fill="#fff"/><polygon points="2290.87 1391.11 1716.94 1391.11 1720.06 1386.42 2288.98 1386.42 2288.98 1387.09 2290.87 1391.11" fill="#fff"/><polygon points="2557.63 1391.11 2392.9 1391.11 2396.76 1386.42 2548.05 1386.42 2550.76 1387.74 2555.45 1390.04 2557.63 1391.11" fill="#fff"/><path d="M2274.67,1362H1736.42c.28-.39.56-.79.85-1.17.86-1.19,1.75-2.37,2.65-3.52h531.24C2272.36,1358.86,2273.53,1360.43,2274.67,1362Z" fill="#fff"/><path d="M2498.24,1362H2418.6a59.21,59.21,0,0,1,6.8-4.69h63.27l3.91,1.91,4.69,2.3Z" fill="#fff"/><path d="M2246.67,1332.93H1764.39c.64-.49,1.3-1,2-1.49q2.19-1.65,4.46-3.2h469.43C2242.44,1329.73,2244.58,1331.3,2246.67,1332.93Z" fill="#fff"/></g><line x1="2386.72" y1="1401.43" x2="2285.14" y2="1525.06" fill="none" stroke="#59221d" stroke-linecap="round" stroke-miterlimit="10" stroke-width="5"/><path d="M2170.79,1303.7h0a119.59,119.59,0,0,1,106.83,65.85l50.48,100.39" fill="none" stroke="#59221d" stroke-linecap="round" stroke-miterlimit="10" stroke-width="5"/><line x1="2054.58" y1="1526.93" x2="2031.04" y2="1478.84" fill="none" stroke="#59221d" stroke-linecap="round" stroke-miterlimit="10" stroke-width="5"/><path d="M1960.3,1303.7h-43.82l44.42-27.21V1389.7l98.39-85.07-8.65-28.14h12.58a28.58,28.58,0,0,1,15.59,4.62l34.71,22.59H2060" fill="none" stroke="#59221d" stroke-linecap="round" stroke-miterlimit="10" stroke-width="5"/></g><g id="NECK"><polygon points="2057.42 1303.7 1962.77 1388.76 1962.77 1243.13 2038.74 1243.13 2057.42 1303.7" fill="#632d23"/><polygon points="2038.74 1243.12 2057.42 1303.7 1962.78 1266.16 1962.78 1243.12 2038.74 1243.12" fill="#1a0c12"/></g><g id="HEAD"><path id="HAIR" d="M2041,1204.86v2.34h-3.43a10.29,10.29,0,0,0-10.29,10.29v1.64a18.19,18.19,0,0,1-17-13.12l-1.64-5.7a23.36,23.36,0,0,0-22.45-16.87H1974.3a23.37,23.37,0,0,0-23.38,23.37v-2a34.39,34.39,0,0,1,34.39-34.39h21.3A34.39,34.39,0,0,1,2041,1204.86Z" fill="#1a0c12"/><path id="HEAD-2" data-name="HEAD" d="M2064,1225.57a18.37,18.37,0,0,1-18.37,18.36h-15.09l-6.6,10.47a18.29,18.29,0,0,1-15.47,8.54H1969.2a18.29,18.29,0,0,1-18.28-18.29v-37.84a23.37,23.37,0,0,1,23.38-23.37h11.86a23.36,23.36,0,0,1,22.45,16.87l1.64,5.7a18.19,18.19,0,0,0,17,13.12v-1.64a10.29,10.29,0,0,1,10.29-10.29h8.08A18.37,18.37,0,0,1,2064,1225.57Z" fill="#632d23"/><g id="FACE"><path d="M2037.61,1226.87a10.29,10.29,0,0,1,10.28-10.29" fill="none" stroke="#1a0c12" stroke-linecap="round" stroke-miterlimit="10" stroke-width="5"/><path d="M1970.9,1235.53c-10.82,0-4.92-27.09-4.92-27.09s-7.63-1.65-14.12,0" fill="none" stroke="#1a0c12" stroke-linecap="round" stroke-miterlimit="10" stroke-width="5"/><path d="M1983.73,1206.88s10.1-.61,17.35,2.81" fill="none" stroke="#1a0c12" stroke-linecap="round" stroke-miterlimit="10" stroke-width="5"/><ellipse cx="1989.48" cy="1220.28" rx="2.65" ry="4.51" fill="#1a0c12"/><ellipse cx="1955.71" cy="1220.28" rx="2.48" ry="4.22" fill="#1a0c12"/><path d="M1973.25,1244.87s11.45,1,13.59-2.8" fill="none" stroke="#1a0c12" stroke-linecap="round" stroke-miterlimit="10" stroke-width="5"/></g></g><g id="HAND"><path d="M2595.56,1440.29c-23.22,12-54.79,9.69-72.16-1.47l-36.93-23.73c-21.29-13.68-34.76-41.15-27.5-66.35,1.51.06,3,.16,4.53.33s3.13.4,4.69.7a61.66,61.66,0,0,1,15.67,5.2l4.81,2.36,3.91,1.91,4.69,2.3,1,.48,23.43,11.48,4.69,2.29,21.69,10.63,2.71,1.32,4.69,2.3,2.18,1.07,4,2a61.16,61.16,0,0,1,18.22,13.58,55.77,55.77,0,0,1,4.69,5.77A61.79,61.79,0,0,1,2595.56,1440.29Z" fill="#1a0c12"/><path d="M2494.7,1398.44a59.8,59.8,0,0,1-24.35-70.19c13-37,36.4-88,57.61-86.82,10.63.61.89,39.86,16.81,40.47,18.72.72,92.45-108.76,111.13-96.56s42.67,102.17,22.12,142c-11.17,21.66-45.9,61.16-75.93,87.92a59.8,59.8,0,0,1-71.93,5.75Z" fill="#632d23"/><path d="M2682,1267.91c-4.61,8.93-31,51.63-40,64.37" fill="none" stroke="#1a0c12" stroke-linecap="round" stroke-miterlimit="10" stroke-width="5"/><path d="M2676.11,1233c-4.61,8.94-40.06,61-50.14,73.43" fill="none" stroke="#1a0c12" stroke-linecap="round" stroke-miterlimit="10" stroke-width="5"/><path d="M2666.1,1204.14c-4.61,8.94-46.76,59.69-56.83,72.17" fill="none" stroke="#1a0c12" stroke-linecap="round" stroke-miterlimit="10" stroke-width="5"/><path d="M2540.68,1300.09s17,45.65-2.49,85.18" fill="none" stroke="#1a0c12" stroke-linecap="round" stroke-miterlimit="10" stroke-width="5"/></g></g><path id="STEERING_WHEEL" data-name="STEERING WHEEL" d="M1672.79,1525.06H1502.58c-2.78-52.64,26-93.26,69-93.64C1615,1431,1658,1471.79,1672.79,1525.06Z" fill="none" stroke="#59221d" stroke-linecap="round" stroke-miterlimit="10" stroke-width="5"/><g id="WHEELS"><path d="M3056.27,2100h422.36c-3.51-104.27-76.44-205.71-211.4-205.71C3151.16,1894.26,3062.36,1991.38,3056.27,2100Z" fill="#59221d"/><path d="M3499.29,1997.07c-40-93.3-128.85-158.21-232.06-158.21-106.79,0-198.22,69.49-236,168" fill="none" stroke="#59221d" stroke-linecap="round" stroke-miterlimit="10" stroke-width="5"/><path d="M3286.49,2256.52h-38.18c-82.6,0-143.25-70.81-143.25-158.15s60.65-158.14,143.25-158.14h38.18c-79.69,0-144.29,70.79-144.29,158.14S3206.8,2256.52,3286.49,2256.52Z" fill="#a74602" stroke="#59221d" stroke-miterlimit="10" stroke-width="5"/><path d="M3430.76,2098.37c0,86.57-63.45,156.89-142.15,158.13l-2.12,0c-79.69,0-144.29-70.81-144.29-158.15s64.6-158.14,144.29-158.14l2.12,0C3367.31,1941.49,3430.76,2011.8,3430.76,2098.37Z" fill="#fff" stroke="#59221d" stroke-miterlimit="10" stroke-width="5"/><ellipse cx="3286.48" cy="2099.61" rx="102.72" ry="112.59" fill="none" stroke="#59221d" stroke-miterlimit="10" stroke-width="5"/><path d="M1422.26,2100h422.37c-3.52-104.27-76.44-205.71-211.4-205.71C1517.16,1894.26,1428.36,1991.38,1422.26,2100Z" fill="#59221d"/><path d="M1865.29,1997.07c-40-93.3-128.85-158.21-232.06-158.21-106.79,0-198.22,69.49-236,168" fill="none" stroke="#59221d" stroke-linecap="round" stroke-miterlimit="10" stroke-width="5"/><path d="M1652.48,2256.52h-38.17c-82.6,0-143.26-70.81-143.26-158.15s60.66-158.14,143.26-158.14h38.17c-79.68,0-144.28,70.79-144.28,158.14S1572.8,2256.52,1652.48,2256.52Z" fill="#a74602" stroke="#59221d" stroke-miterlimit="10" stroke-width="5"/><path d="M1796.76,2098.37c0,86.56-63.45,156.88-142.15,158.13l-2.13,0c-79.68,0-144.28-70.81-144.28-158.15s64.6-158.14,144.28-158.14l2.13,0C1733.31,1941.5,1796.76,2011.81,1796.76,2098.37Z" fill="#fff" stroke="#59221d" stroke-miterlimit="10" stroke-width="5"/><ellipse cx="1652.48" cy="2099.61" rx="102.72" ry="112.59" fill="none" stroke="#59221d" stroke-miterlimit="10" stroke-width="5"/></g><g id="HEADLIGHTS"><path d="M3706.5,1709.28h-83.09c-14.34,0-27.34-9.16-33.19-23.37l-17.35-42.21c-5-12.2,3.21-26,15.52-26H3706.5Z" fill="#fff"/><path d="M3706.67,1709.28H3606.28a39.47,39.47,0,0,1-36-23.37l-18.83-42.21a18.45,18.45,0,0,1,16.85-26h138.4Z" fill="none" stroke="#59221d" stroke-linecap="round" stroke-miterlimit="10" stroke-width="5"/><line x1="3706.13" y1="1649.18" x2="3555.5" y2="1649.18" fill="none" stroke="#59221d" stroke-linecap="round" stroke-miterlimit="10" stroke-width="5"/><line x1="3706.13" y1="1678.81" x2="3567.76" y2="1678.81" fill="none" stroke="#59221d" stroke-linecap="round" stroke-miterlimit="10" stroke-width="5"/><path d="M1275.74,1827.26h-35.38v-38a119,119,0,0,1,70.12-108.45l13.28-6v104.35A48,48,0,0,1,1275.74,1827.26Z" fill="#fff"/><path d="M922,1831H886.63v-38a118.91,118.91,0,0,1,70.12-108.45l13.27-6V1783A48,48,0,0,1,922,1831Z" fill="#fff"/></g><g id="CONTOURS"><path d="M2426.68,1997.11H2933A391.32,391.32,0,0,1,3055.7,1818.8v-274" fill="none" stroke="#59221d" stroke-linecap="round" stroke-miterlimit="10" stroke-width="5"/><path d="M2389.71,1362V1136.2a45,45,0,0,0-45-45H1697.3a123.19,123.19,0,0,0-103.89,57" fill="none" stroke="#59221d" stroke-linecap="round" stroke-miterlimit="10" stroke-width="5"/><path d="M1735.7,1783a356.11,356.11,0,0,1,221.23,214.07h432.78v-224" fill="none" stroke="#59221d" stroke-linecap="round" stroke-miterlimit="10" stroke-width="5"/><path d="M2865.94,1582.37c-3.69-7.43,4.21-14.87,9.4-14.87h104.34c5.19,0,12.07,5.74,9.4,14.87" fill="none" stroke="#59221d" stroke-linecap="round" stroke-miterlimit="10" stroke-width="5"/><path d="M1240.36,2097.62v-314.7a110,110,0,0,1,64.33-100.05l406.6-158.95L1968.73,1120a123.18,123.18,0,0,1,103.88-57" fill="none" stroke="#59221d" stroke-linecap="round" stroke-miterlimit="10" stroke-width="5"/><line x1="2048.32" y1="1525.06" x2="1353.14" y2="1525.06" fill="none" stroke="#59221d" stroke-linecap="round" stroke-miterlimit="10" stroke-width="5"/></g><g id="MIRRORS"><path d="M1368.57,1500.75l-11.39,17.87c-6.92-7.28-7.76-8.51-25.66-8.51h-50.61a29.74,29.74,0,0,1-29.75-29.74v-18a29.74,29.74,0,0,1,29.75-29.74h19a49.14,49.14,0,0,1,41.43,22.72Z" fill="#fff" stroke="#59221d" stroke-linecap="round" stroke-miterlimit="10" stroke-width="5"/><path d="M1358.5,1516.55l-2.37,3.72a41.9,41.9,0,0,0-7.45-4.55c-9.89-4.71-21.49-5.61-36.69-5.61h-50.62a29.74,29.74,0,0,1-29.75-29.74v-18a29.74,29.74,0,0,1,29.75-29.74h19a49.13,49.13,0,0,1,41.43,22.72Z" fill="#fff"/><path d="M1231.63,1463.16v17.21a29.73,29.73,0,0,0,29.74,29.74H1312c15.21,0,26.81.89,36.69,5.61l-29-48.41a49.13,49.13,0,0,0-41.43-22.73h-19A29.73,29.73,0,0,0,1231.63,1463.16Z" fill="#ffc200"/><path d="M1358.5,1516.55l-2.37,3.72c-11.51-8.75-25-10.16-44.14-10.16h-50.62a29.74,29.74,0,0,1-29.75-29.74v-18a29.74,29.74,0,0,1,29.75-29.74h19a49.13,49.13,0,0,1,41.43,22.72Z" fill="none" stroke="#59221d" stroke-linecap="round" stroke-miterlimit="10" stroke-width="5"/><path d="M1923.37,1463.05v18a29.73,29.73,0,0,1-29.74,29.74H1793.4c-15.21,0-26.81.89-36.69,5.61a43.61,43.61,0,0,0-11.62,8.1h-2.58l41-68.46a49.12,49.12,0,0,1,41.43-22.72h68.65A29.73,29.73,0,0,1,1923.37,1463.05Z" fill="#fff"/><path d="M1923.37,1463.83V1481a29.73,29.73,0,0,1-29.74,29.74H1793.4c-15.21,0-26.81.89-36.69,5.61l29-48.41a49.13,49.13,0,0,1,41.43-22.73h68.65A29.74,29.74,0,0,1,1923.37,1463.83Z" fill="#ffc200"/><path d="M1923.37,1463.05v18a29.73,29.73,0,0,1-29.74,29.74H1793.4c-21.54,0-35.86,1.78-48.31,13.71h-2.58l41-68.46a49.12,49.12,0,0,1,41.43-22.72h68.65A29.73,29.73,0,0,1,1923.37,1463.05Z" fill="none" stroke="#59221d" stroke-linecap="round" stroke-miterlimit="10" stroke-width="5"/></g></g><g id="WOMAN"><g id="GROUND-2" data-name="GROUND"><line x1="104.14" y1="2462.73" x2="1395.97" y2="2462.73" fill="none" stroke="#59221d" stroke-linecap="round" stroke-miterlimit="10" stroke-width="5"/><line x1="517.32" y1="2504.54" x2="1242.41" y2="2504.54" fill="none" stroke="#59221d" stroke-linecap="round" stroke-miterlimit="10" stroke-width="5"/></g><g id="SUITCASE"><path d="M1334.74,1925.83v433.7a60.27,60.27,0,0,1-60.27,60.27H1014a60.28,60.28,0,0,1-59.92-60.27v-433.7a60.29,60.29,0,0,1,59.92-60.29h260.48A60.28,60.28,0,0,1,1334.74,1925.83Z" fill="#fff" stroke="#59221d" stroke-miterlimit="10" stroke-width="5"/><path d="M1092.19,1934.16v424.4c0,32.47-26.79,58.79-59.92,59-33.12-.19-59.91-26.51-59.91-59v-424.4c0-32.47,26.79-58.8,59.91-59C1065.4,1875.36,1092.19,1901.69,1092.19,1934.16Z" fill="#98c8db"/><path d="M1073.9,1925.83v433.7a59.92,59.92,0,1,1-119.83,0v-433.7a59.92,59.92,0,1,1,119.83,0Z" fill="none" stroke="#59221d" stroke-miterlimit="10" stroke-width="5"/><circle cx="1268.23" cy="2446.85" r="15.88" fill="none" stroke="#59221d" stroke-linecap="round" stroke-miterlimit="10" stroke-width="5"/><circle cx="1074.77" cy="2446.85" r="15.88" fill="none" stroke="#59221d" stroke-linecap="round" stroke-miterlimit="10" stroke-width="5"/><rect x="1090.99" y="1661.32" width="118.91" height="204.23" fill="none" stroke="#59221d" stroke-linecap="round" stroke-miterlimit="10" stroke-width="5"/><rect x="1073.49" y="1656.51" width="152.03" height="9.58" fill="#59221d"/><line x1="1134.54" y1="1934.16" x2="1134.54" y2="2358.56" fill="none" stroke="#59221d" stroke-linecap="round" stroke-miterlimit="10" stroke-width="5"/><line x1="1183.63" y1="1934.16" x2="1183.63" y2="2358.56" fill="none" stroke="#59221d" stroke-linecap="round" stroke-miterlimit="10" stroke-width="5"/><line x1="1232.71" y1="1934.16" x2="1232.71" y2="2358.56" fill="none" stroke="#59221d" stroke-linecap="round" stroke-miterlimit="10" stroke-width="5"/><line x1="1281.8" y1="1934.16" x2="1281.8" y2="2358.56" fill="none" stroke="#59221d" stroke-linecap="round" stroke-miterlimit="10" stroke-width="5"/><rect x="1214.97" y="1973.17" width="84.31" height="45.03" fill="#f5bbbb"/><rect x="1152.99" y="2077.81" width="64.65" height="64.65" transform="translate(-595.77 471.43) rotate(-18.06)" fill="#ffc200"/><rect x="1209.9" y="2211.09" width="55.53" height="37.04" fill="#98c8db"/></g><g id="WOMAN-2" data-name="WOMAN"><g id="RIGHT_HAND" data-name="RIGHT HAND"><rect x="1162.71" y="1060.81" width="94.06" height="160.3" rx="14.62" fill="#98c8db"/><path d="M1245.13,1245.92l-59.87,12.24a256.9,256.9,0,0,0-26.75-31.7c-21.49-21.92-44.53-38-60.55-43.62l11.72-49.45a25,25,0,0,1,23.39-19.22l29.66-1.08v0a21.78,21.78,0,0,0,22.22,21.76l50.51-1a21.76,21.76,0,0,0,21.32-21.74v-8.81a14.32,14.32,0,0,1,13.56,13.73l3.62,88.81A40,40,0,0,1,1245.13,1245.92Z" fill="#a74602"/><path d="M1269,1136.35c.75,18.41-20.49,25.62-41.26,28" fill="none" stroke="#59221d" stroke-linecap="round" stroke-miterlimit="10" stroke-width="5"/><path d="M1269.83,1163c.75,18.42-20.49,25.62-41.26,28" fill="none" stroke="#59221d" stroke-linecap="round" stroke-miterlimit="10" stroke-width="5"/><path d="M1272.07,1189c.75,18.41-20.5,24.63-41.27,27" fill="none" stroke="#59221d" stroke-linecap="round" stroke-miterlimit="10" stroke-width="5"/><circle cx="1238.97" cy="1079.15" r="5.46" fill="none" stroke="#59221d" stroke-linecap="round" stroke-miterlimit="10" stroke-width="4"/></g><g id="LEGS"><g id="LEGS-2" data-name="LEGS"><g id="LEFT"><polygon points="371.82 1698.1 583.84 1754.82 372.31 2340.11 148.44 2340.11 371.82 1698.1" fill="#a74602"/><polygon points="371.82 1698.1 583.84 1754.82 563.38 1811.43 352.08 1754.82 371.82 1698.1" fill="#59221d"/></g><g id="RIGHT"><polygon points="840.07 2340.11 624.7 2340.11 604.17 1754.82 802.35 1754.82 840.07 2340.11" fill="#a74602"/><polygon points="803.32 1769.76 606.57 1823.01 606.56 1823.01 604.17 1754.82 802.36 1754.82 803.32 1769.76" fill="#59221d"/></g></g><g id="SHOES"><g id="LEFT-2" data-name="LEFT"><path d="M378.67,2425.05h0a17.92,17.92,0,0,1,11.44,16.69l0,21H153.62a32.6,32.6,0,0,1-30.78-43.31l27.81-80,219.19,1-10.55,30.82a45.13,45.13,0,0,0,19.38,53.78Z" fill="#fff" stroke="#59221d" stroke-miterlimit="10" stroke-width="5"/><path d="M390.13,2462.73H153.62a32.6,32.6,0,0,1-30.78-43.31l5.78-16.63a32.62,32.62,0,0,0,31.95,39.12H390.1Z" fill="#ffc200" stroke="#59221d" stroke-miterlimit="10" stroke-width="5"/><path d="M294.68,2340.11,289.83,2357a26.14,26.14,0,0,0,25.11,33.39h39l15.93-49.89Z" fill="#ffc200" stroke="#59221d" stroke-miterlimit="10" stroke-width="5"/><path d="M280.77,2340.11l-5.88,20.41A31.67,31.67,0,0,0,305.32,2401h54.15" fill="none" stroke="#59221d" stroke-miterlimit="10" stroke-width="5"/></g><g id="RIGHT-2" data-name="RIGHT"><path d="M884.66,2462.73H665.16a37.44,37.44,0,0,1-37.43-36.14l-1-87.05.28-.07H838.12l4.62,45.75a43.77,43.77,0,0,0,25.12,35.28h0a28.42,28.42,0,0,1,16.46,25.21Z" fill="#fff" stroke="#59221d" stroke-miterlimit="10" stroke-width="5"/><path d="M884.66,2462.73H665.16a37.44,37.44,0,0,1-37.43-36.14l-.24-20.48h.26a37.45,37.45,0,0,0,37.41,35.8H884a28,28,0,0,1,.34,3.8Z" fill="#ffc200" stroke="#59221d" stroke-miterlimit="10" stroke-width="5"/><path d="M843.58,2390.36H820.44a32.12,32.12,0,0,1-32.12-32.12v-18.77h49.8l4.62,45.75A43.37,43.37,0,0,0,843.58,2390.36Z" fill="#ffc200" stroke="#59221d" stroke-miterlimit="10" stroke-width="5"/><path d="M847.54,2401H814.2a36.4,36.4,0,0,1-36.4-36.4v-25.09" fill="none" stroke="#59221d" stroke-miterlimit="10" stroke-width="5"/></g></g><g id="SHORTS"><path d="M825.17,1754.82h-221l-1.79-51.3-18.54,51.3-212-56.72L483,1378.7c64.17,39.49,295.16,0,295.16,0h3Z" fill="#f5bbbb"/><polygon points="793.98 1488.74 793.98 1754.78 788.03 1754.78 788.03 1437.95 793.98 1488.74" fill="#fff"/><path d="M762.41,1381.19v373.59h-5.95V1382.07Z" fill="#fff"/><path d="M730.84,1385.61v369.17h-6V1386.37Z" fill="#fff"/><path d="M699.26,1389.38v365.4h-5.94V1390Z" fill="#fff"/><path d="M667.69,1392.45v362.33h-6V1393Q664.74,1392.73,667.69,1392.45Z" fill="#fff"/><path d="M636.12,1394.74v360h-6v-359.7C632.14,1395,634.13,1394.86,636.12,1394.74Z" fill="#fff"/><path d="M604.54,1396.05v301.49L598.59,1714V1396.17Z" fill="#fff"/><path d="M573,1396.07v355.85l-6-1.61V1395.88C569,1396,571,1396,573,1396.07Z" fill="#fff"/><path d="M541.39,1394.19v349.27l-5.95-1.59V1393.54Q538.37,1393.9,541.39,1394.19Z" fill="#fff"/><path d="M509.81,1389.07V1735l-5.94-1.58V1387.49C505.79,1388,507.78,1388.57,509.81,1389.07Z" fill="#fff"/><polygon points="478.25 1392.22 478.25 1726.57 472.3 1724.97 472.3 1409.33 478.25 1392.22" fill="#fff"/><polygon points="446.67 1482.98 446.67 1718.12 440.72 1716.52 440.72 1500.09 446.67 1482.98" fill="#fff"/><polygon points="415.1 1573.72 415.1 1709.67 409.15 1708.08 409.15 1590.83 415.1 1573.72" fill="#fff"/><path d="M782.07,1387c-202.49,54.43-318.6,49.15-318.6,49.15L483,1378.7c64.17,39.49,295.16,0,295.16,0h3Z" fill="#59221d"/><polyline points="607.15 1754.82 594.52 1522.85 551.05 1486.32" fill="none" stroke="#59221d" stroke-miterlimit="10" stroke-width="6"/><polygon points="730.84 1525.53 688.82 1546.36 646.81 1525.53 646.81 1452.75 730.84 1452.75 730.84 1525.53" fill="#f5bbbb" stroke="#592d29" stroke-linejoin="round" stroke-width="6"/><polygon points="516.6 1525.53 474.58 1546.36 432.57 1525.53 458.36 1452.75 516.6 1452.75 516.6 1525.53" fill="#f5bbbb" stroke="#592d29" stroke-linejoin="round" stroke-width="6"/></g></g><g id="BLOUSE"><path d="M1198.72,1300.73c-.15.18-.31.35-.48.52l-134.51,146.88a150.55,150.55,0,0,1-259.47-76.6l-26.15-154.74v161.92s-231,39.49-295.16,0l-91.47,261.62a.19.19,0,0,1,0,.07v0c-4.82,12.53-44.9,10.51-89.73-6.5s-78.59-40.3-74-52.88a.19.19,0,0,1,0-.07.45.45,0,0,0,0-.11L407.12,1110A134.66,134.66,0,0,1,533,1023.29H802a134.66,134.66,0,0,1,131.55,105.89l37.07,159.64,109.27-105.75c9.79-9.62,46,10.11,78.61,43.39C1190.61,1259.17,1207.46,1290.54,1198.72,1300.73Z" fill="#fff" stroke="#59221d" stroke-miterlimit="10" stroke-width="5"/><path d="M391.48,1640.33a.19.19,0,0,1,0,.07v0c-4.82,12.53-44.9,10.51-89.73-6.5s-78.59-40.3-74-52.88a.19.19,0,0,1,0-.07.45.45,0,0,0,0-.11c5-12.43,46.41-9.38,91.16,7.59S396.1,1627.76,391.48,1640.33Z" fill="#fff" stroke="#59221d" stroke-miterlimit="10" stroke-width="5"/></g><g id="BACKPACK"><rect x="-13.15" y="1776.63" width="351.56" height="256.33" rx="68.42" stroke-width="5" fill="none" stroke="#59221d" stroke-linecap="round" stroke-miterlimit="10" transform="translate(-1689.94 1432.91) rotate(-70.83)"/><path d="M300.66,1898.06,248.43,2048.3a68.41,68.41,0,0,1-87.09,42.15L48.47,2051.21a68.43,68.43,0,0,1-42.16-87.09l52.23-150.24a83.44,83.44,0,0,1,106.19-51.41l84.54,29.4A83.41,83.41,0,0,1,300.66,1898.06Z" fill="none" stroke="#59221d" stroke-linecap="round" stroke-miterlimit="10" stroke-width="5"/><path d="M100,1911.08H210.37a13,13,0,0,1,13,13v15.49a0,0,0,0,1,0,0H87a0,0,0,0,1,0,0v-15.49A13,13,0,0,1,100,1911.08Z" transform="translate(640.85 55.8) rotate(19.17)" fill="none" stroke="#59221d" stroke-linecap="round" stroke-miterlimit="10" stroke-width="5"/><path d="M83.9,1950.16h127a0,0,0,0,1,0,0V2002a18.76,18.76,0,0,1-18.76,18.76H102.66A18.76,18.76,0,0,1,83.9,2002v-51.86A0,0,0,0,1,83.9,1950.16Z" transform="translate(660.16 61.7) rotate(19.17)" fill="#98c8db"/><path d="M75.43,1936.85h127a0,0,0,0,1,0,0v51.86a18.76,18.76,0,0,1-18.76,18.76H94.19a18.76,18.76,0,0,1-18.76-18.76v-51.86a0,0,0,0,1,0,0Z" transform="translate(655.32 63.75) rotate(19.17)" fill="none" stroke="#59221d" stroke-linecap="round" stroke-miterlimit="10" stroke-width="5"/><polygon points="319.85 1672.46 290.78 1763.79 174.12 1722.38 191.78 1666.88 319.85 1672.46" fill="none" stroke="#59221d" stroke-linecap="round" stroke-miterlimit="10" stroke-width="5"/></g><g id="LEFT_HAND" data-name="LEFT HAND"><path d="M372.45,1618.13l-2.33,6.38-8.67,23.73L343,1698.87a28.23,28.23,0,0,1-26.62,18.84H208.19a28.24,28.24,0,0,1-26.57-37.77l13.13-36.77a20.68,20.68,0,0,1,19.47-13.7h22.3l8.3-24.63,1.14-3.39,8.43-25c16.87,1,40.25,6.11,63.58,15C339.64,1599.65,359.35,1609.12,372.45,1618.13Z" fill="#a74602"/><path d="M228.72,1714a27,27,0,0,1-25.42-36.11l11.61-32.33a19.77,19.77,0,0,1,18.62-13.09H313.1a9.62,9.62,0,0,1,9.07,12.83l-10.22,31,7.91-.27" fill="none" stroke="#59221d" stroke-linecap="round" stroke-miterlimit="10" stroke-width="5"/><path d="M265.16,1714a27,27,0,0,1-25.41-36.11l11.6-32.33A19.78,19.78,0,0,1,270,1632.45" fill="none" stroke="#59221d" stroke-linecap="round" stroke-miterlimit="10" stroke-width="5"/><path d="M305.64,1716c-18.69,0-35.75-20.54-29.45-38.13l11.61-32.33a19.77,19.77,0,0,1,18.62-13.09" fill="none" stroke="#59221d" stroke-linecap="round" stroke-miterlimit="10" stroke-width="5"/><path d="M245.67,1602.31l8.76-26.89c16.93.92,39.77,6,63.54,15,22.15,8.4,41.67,18,54.76,27.14l-2.14,5.72Z" fill="#59221d"/></g><g id="HEAD-3" data-name="HEAD"><g id="NECK-2" data-name="NECK"><path d="M739.84,972.39v52.88s-48.54,17.11-81.89,0L695.59,957l3-5.43h0C699,952.07,713,968.48,739.84,972.39Z" fill="#a74602"/><path d="M698.59,951.55s14,16.87,41.25,20.84v38l-44.31-53.47Z" fill="#59221d"/></g><path id="HAIR-2" data-name="HAIR" d="M482.94,1374.74l-312-225.08S166.82,1022,300.6,1003.54c61.87-8.56,83.55,22.72,132.91,15.48,50.15-7.35,29.47-84.32,103.34-101,49.41-11.18,63.71,24.3,99.43,7.24,24.35-11.62,38.17-54.61,82.93-54.61,33.24,0,38.16,26,38.16,26S743.12,914,698.59,915.69v33.88s0,57.84-50.55,80.66c-36.84,16.62-18.38,43.2-6.17,94.42,16.08,67.46-44.86,116.82-104.32,130C478.58,1267.75,465.2,1326,482.94,1374.74Z" fill="#ffc200"/><g id="HEAD-4" data-name="HEAD"><path id="HEAD-5" data-name="HEAD" d="M704,915.41c39.66-2.76,53-18.29,53.4-18.79h0L771.58,931a6.08,6.08,0,0,1-3.91,8.15l-3.53,1,2,12.74a15.36,15.36,0,0,1-9,16.42A35.27,35.27,0,0,1,738,972.18c-27.24-4-39.39-20.63-39.39-20.63H693.5a18,18,0,0,1,0-36Z" fill="#a74602"/><path d="M691.19,925.49A11.41,11.41,0,0,1,702.6,936.9" fill="none" stroke="#59221d" stroke-linecap="round" stroke-miterlimit="10" stroke-width="5"/><path d="M733.19,919.59s7.32-5.43,15.54-5.57" fill="none" stroke="#ffc200" stroke-linecap="round" stroke-miterlimit="10" stroke-width="4"/><ellipse cx="744.68" cy="928.02" rx="2.8" ry="4.96" fill="#59221d"/></g></g></g></g></g></g></svg>